<mxfile host="Electron" modified="2023-12-27T08:27:15.481Z" agent="Mozilla/5.0 (Windows NT 10.0; Win64; x64) AppleWebKit/537.36 (KHTML, like Gecko) draw.io/21.5.1 Chrome/112.0.5615.204 Electron/24.6.0 Safari/537.36" etag="5DEIBqH-VIOlZPi1Jg6Y" version="21.5.1" type="device">
  <diagram name="Страница 1" id="0Ttsrak6VNhfS4hvvYJF">
    <mxGraphModel dx="516" dy="1164" grid="1" gridSize="10" guides="1" tooltips="1" connect="1" arrows="1" fold="1" page="1" pageScale="1" pageWidth="1100" pageHeight="850" math="0" shadow="0">
      <root>
        <mxCell id="0" />
        <mxCell id="1" parent="0" />
        <mxCell id="xpqMXSpUIVNqOfrh0Xp9-1" value="App" style="rounded=0;whiteSpace=wrap;html=1;fontSize=16;" vertex="1" parent="1">
          <mxGeometry x="440" y="120" width="160" height="80" as="geometry" />
        </mxCell>
        <mxCell id="xpqMXSpUIVNqOfrh0Xp9-2" value="" style="endArrow=none;html=1;rounded=0;" edge="1" parent="1">
          <mxGeometry width="50" height="50" relative="1" as="geometry">
            <mxPoint y="80" as="sourcePoint" />
            <mxPoint x="1100" y="80" as="targetPoint" />
          </mxGeometry>
        </mxCell>
        <mxCell id="xpqMXSpUIVNqOfrh0Xp9-3" value="Сервак" style="text;html=1;strokeColor=none;fillColor=none;align=center;verticalAlign=middle;whiteSpace=wrap;rounded=0;labelBorderColor=none;spacing=2;" vertex="1" parent="1">
          <mxGeometry y="50" width="60" height="30" as="geometry" />
        </mxCell>
        <mxCell id="xpqMXSpUIVNqOfrh0Xp9-5" style="edgeStyle=orthogonalEdgeStyle;rounded=0;orthogonalLoop=1;jettySize=auto;html=1;" edge="1" parent="1" source="xpqMXSpUIVNqOfrh0Xp9-4">
          <mxGeometry relative="1" as="geometry">
            <mxPoint x="400" y="80" as="targetPoint" />
          </mxGeometry>
        </mxCell>
        <mxCell id="xpqMXSpUIVNqOfrh0Xp9-6" value="/api/playes" style="edgeLabel;html=1;align=center;verticalAlign=middle;resizable=0;points=[];" vertex="1" connectable="0" parent="xpqMXSpUIVNqOfrh0Xp9-5">
          <mxGeometry x="-0.0057" y="-2" relative="1" as="geometry">
            <mxPoint x="2" y="31" as="offset" />
          </mxGeometry>
        </mxCell>
        <mxCell id="xpqMXSpUIVNqOfrh0Xp9-4" value="" style="verticalLabelPosition=bottom;html=1;verticalAlign=top;align=center;strokeColor=none;fillColor=#00BEF2;shape=mxgraph.azure.website_generic;pointerEvents=1;" vertex="1" parent="1">
          <mxGeometry x="450" y="-210" width="141.18" height="120" as="geometry" />
        </mxCell>
        <mxCell id="xpqMXSpUIVNqOfrh0Xp9-7" value="Console" style="rounded=0;whiteSpace=wrap;html=1;fontSize=16;" vertex="1" parent="1">
          <mxGeometry x="140" y="260" width="160" height="60" as="geometry" />
        </mxCell>
        <mxCell id="xpqMXSpUIVNqOfrh0Xp9-8" value="App" style="rounded=0;whiteSpace=wrap;html=1;fontSize=16;" vertex="1" parent="1">
          <mxGeometry x="340" y="260" width="160" height="60" as="geometry" />
        </mxCell>
        <mxCell id="xpqMXSpUIVNqOfrh0Xp9-10" value="Template" style="rounded=0;whiteSpace=wrap;html=1;fontSize=16;" vertex="1" parent="1">
          <mxGeometry x="540" y="260" width="160" height="60" as="geometry" />
        </mxCell>
        <mxCell id="xpqMXSpUIVNqOfrh0Xp9-11" value="Panel" style="rounded=0;whiteSpace=wrap;html=1;fontSize=16;" vertex="1" parent="1">
          <mxGeometry x="740" y="260" width="160" height="60" as="geometry" />
        </mxCell>
        <mxCell id="xpqMXSpUIVNqOfrh0Xp9-12" value="Отвечает за выполнение консольных команд такие как создание моделей и миграций, контроллеров и т.д." style="text;html=1;strokeColor=none;fillColor=none;align=center;verticalAlign=middle;whiteSpace=wrap;rounded=0;" vertex="1" parent="1">
          <mxGeometry x="140" y="330" width="160" height="90" as="geometry" />
        </mxCell>
      </root>
    </mxGraphModel>
  </diagram>
</mxfile>
